<svg xmlns="http://www.w3.org/2000/svg" width="1200" height="630" viewBox="0 0 1200 630" role="img"><title>Esfuerzo de compra estimado · 2025Q4</title>
  <rect width="1200" height="630" fill="#f8fafc"/><rect width="1200" height="142" fill="#142738"/>
  <text x="46" y="40" font-family="Arial,sans-serif" font-size="17" letter-spacing="2" fill="#d8f381">HIPOTECALC ANALYTICS / IHEC</text>
  <text x="46" y="86" font-family="Arial,sans-serif" font-size="31" font-weight="bold" fill="white">Dónde comprar vivienda exige más renta</text>
  <text x="46" y="119" font-family="Arial,sans-serif" font-size="17" fill="#cfdae6">2025T4 · Seis mayores cocientes entre 100 municipios</text>
  <line x1="350" y1="174" x2="350" y2="470" stroke="#dbe3ed"/><text x="350" y="493" text-anchor="middle" font-family="Arial,sans-serif" font-size="14" fill="#516278">0,0×</text><line x1="540" y1="174" x2="540" y2="470" stroke="#dbe3ed"/><text x="540" y="493" text-anchor="middle" font-family="Arial,sans-serif" font-size="14" fill="#516278">3,0×</text><line x1="730" y1="174" x2="730" y2="470" stroke="#dbe3ed"/><text x="730" y="493" text-anchor="middle" font-family="Arial,sans-serif" font-size="14" fill="#516278">6,0×</text><line x1="920" y1="174" x2="920" y2="470" stroke="#dbe3ed"/><text x="920" y="493" text-anchor="middle" font-family="Arial,sans-serif" font-size="14" fill="#516278">9,0×</text><line x1="1110" y1="174" x2="1110" y2="470" stroke="#dbe3ed"/><text x="1110" y="493" text-anchor="middle" font-family="Arial,sans-serif" font-size="14" fill="#516278">12,0×</text>
  <text x="46" y="201" font-family="Arial,sans-serif" font-size="20" fill="#24394f">Marbella</text><rect x="350" y="179" width="699.7274489769044" height="31" rx="3" fill="#255ed4"/><text x="1058.7274489769043" y="201" font-family="Arial,sans-serif" font-size="18" font-weight="bold" fill="#24394f">11,05×</text><text x="46" y="250" font-family="Arial,sans-serif" font-size="20" fill="#24394f">Fuengirola</text><rect x="350" y="228" width="625.1348354906218" height="31" rx="3" fill="#7c9ac8"/><text x="984.1348354906218" y="250" font-family="Arial,sans-serif" font-size="18" font-weight="bold" fill="#24394f">9,87×</text><text x="46" y="299" font-family="Arial,sans-serif" font-size="20" fill="#24394f">Arona</text><rect x="350" y="277" width="613.6232473496581" height="31" rx="3" fill="#7c9ac8"/><text x="972.6232473496581" y="299" font-family="Arial,sans-serif" font-size="18" font-weight="bold" fill="#24394f">9,69×</text><text x="46" y="348" font-family="Arial,sans-serif" font-size="20" fill="#24394f">Estepona</text><rect x="350" y="326" width="583.3579179728914" height="31" rx="3" fill="#7c9ac8"/><text x="942.3579179728914" y="348" font-family="Arial,sans-serif" font-size="18" font-weight="bold" fill="#24394f">9,21×</text><text x="46" y="397" font-family="Arial,sans-serif" font-size="20" fill="#24394f">Madrid</text><rect x="350" y="375" width="583.0976681485406" height="31" rx="3" fill="#7c9ac8"/><text x="942.0976681485406" y="397" font-family="Arial,sans-serif" font-size="18" font-weight="bold" fill="#24394f">9,21×</text><text x="46" y="446" font-family="Arial,sans-serif" font-size="20" fill="#24394f">Donostia/San Sebastián</text><rect x="350" y="424" width="582.4054114411103" height="31" rx="3" fill="#7c9ac8"/><text x="941.4054114411103" y="446" font-family="Arial,sans-serif" font-size="18" font-weight="bold" fill="#24394f">9,20×</text>
  <text x="46" y="535" font-family="Arial,sans-serif" font-size="16" fill="#364c62">Precio ofertado de 80 m² / renta anual estimada del hogar. No son años de ahorro.</text>
  <text x="46" y="566" font-family="Arial,sans-serif" font-size="14" fill="#516278">Fuente: estimación de Hipotecalc con Idealista e INE.</text>
  <text x="1150" y="600" text-anchor="end" font-family="Arial,sans-serif" font-size="17" font-weight="bold" fill="#255ed4">hipotecalc.com</text></svg>