<svg xmlns="http://www.w3.org/2000/svg" width="1200" height="630" viewBox="0 0 1200 630" role="img"><title>Estimated home purchase effort · 2024Q1</title>
  <rect width="1200" height="630" fill="#f8fafc"/><rect width="1200" height="142" fill="#142738"/>
  <text x="46" y="40" font-family="Arial,sans-serif" font-size="17" letter-spacing="2" fill="#d8f381">HIPOTECALC ANALYTICS / IHEC</text>
  <text x="46" y="86" font-family="Arial,sans-serif" font-size="31" font-weight="bold" fill="white">Where buying a home takes more income</text>
  <text x="46" y="119" font-family="Arial,sans-serif" font-size="17" fill="#cfdae6">Q1 2024 · Six highest ratios among 100 municipalities</text>
  <line x1="350" y1="174" x2="350" y2="470" stroke="#dbe3ed"/><text x="350" y="493" text-anchor="middle" font-family="Arial,sans-serif" font-size="14" fill="#516278">0.0×</text><line x1="540" y1="174" x2="540" y2="470" stroke="#dbe3ed"/><text x="540" y="493" text-anchor="middle" font-family="Arial,sans-serif" font-size="14" fill="#516278">2.5×</text><line x1="730" y1="174" x2="730" y2="470" stroke="#dbe3ed"/><text x="730" y="493" text-anchor="middle" font-family="Arial,sans-serif" font-size="14" fill="#516278">5.0×</text><line x1="920" y1="174" x2="920" y2="470" stroke="#dbe3ed"/><text x="920" y="493" text-anchor="middle" font-family="Arial,sans-serif" font-size="14" fill="#516278">7.5×</text><line x1="1110" y1="174" x2="1110" y2="470" stroke="#dbe3ed"/><text x="1110" y="493" text-anchor="middle" font-family="Arial,sans-serif" font-size="14" fill="#516278">10.0×</text>
  <text x="46" y="201" font-family="Arial,sans-serif" font-size="20" fill="#24394f">Marbella</text><rect x="350" y="179" width="754.9137212349575" height="31" rx="3" fill="#255ed4"/><text x="1113.9137212349574" y="201" font-family="Arial,sans-serif" font-size="18" font-weight="bold" fill="#24394f">9.93×</text><text x="46" y="250" font-family="Arial,sans-serif" font-size="20" fill="#24394f">Arona</text><rect x="350" y="228" width="649.8471213484607" height="31" rx="3" fill="#7c9ac8"/><text x="1008.8471213484607" y="250" font-family="Arial,sans-serif" font-size="18" font-weight="bold" fill="#24394f">8.55×</text><text x="46" y="299" font-family="Arial,sans-serif" font-size="20" fill="#24394f">Donostia/San Sebastián</text><rect x="350" y="277" width="625.6825273501552" height="31" rx="3" fill="#7c9ac8"/><text x="984.6825273501552" y="299" font-family="Arial,sans-serif" font-size="18" font-weight="bold" fill="#24394f">8.23×</text><text x="46" y="348" font-family="Arial,sans-serif" font-size="20" fill="#24394f">Estepona</text><rect x="350" y="326" width="611.3382375087534" height="31" rx="3" fill="#7c9ac8"/><text x="970.3382375087534" y="348" font-family="Arial,sans-serif" font-size="18" font-weight="bold" fill="#24394f">8.04×</text><text x="46" y="397" font-family="Arial,sans-serif" font-size="20" fill="#24394f">Fuengirola</text><rect x="350" y="375" width="608.112729221967" height="31" rx="3" fill="#7c9ac8"/><text x="967.112729221967" y="397" font-family="Arial,sans-serif" font-size="18" font-weight="bold" fill="#24394f">8.00×</text><text x="46" y="446" font-family="Arial,sans-serif" font-size="20" fill="#24394f">Palma</text><rect x="350" y="424" width="544.777147815781" height="31" rx="3" fill="#7c9ac8"/><text x="903.777147815781" y="446" font-family="Arial,sans-serif" font-size="18" font-weight="bold" fill="#24394f">7.17×</text>
  <text x="46" y="535" font-family="Arial,sans-serif" font-size="16" fill="#364c62">Asking price of 80 m² / estimated annual household income. Not years of saving.</text>
  <text x="46" y="566" font-family="Arial,sans-serif" font-size="14" fill="#516278">Source: Hipotecalc estimates using Idealista and INE.</text>
  <text x="1150" y="600" text-anchor="end" font-family="Arial,sans-serif" font-size="17" font-weight="bold" fill="#255ed4">hipotecalc.com</text></svg>